<svg width="19" height="20" viewBox="0 0 19 20" fill="none" xmlns="http://www.w3.org/2000/svg">
<g id="download-cloud" clip-path="url(#clip0_286_106)">
<path id="Vector" d="M6.33337 13.9583L9.50004 17.125L12.6667 13.9583" stroke="white" stroke-width="2" stroke-linecap="round" stroke-linejoin="round"/>
<path id="Vector_2" d="M9.5 10V17.125" stroke="white" stroke-width="2" stroke-linecap="round" stroke-linejoin="round"/>
<path id="Vector_3" d="M16.53 14.8213C17.2182 14.3373 17.7344 13.6465 18.0035 12.8493C18.2726 12.0521 18.2807 11.1899 18.0265 10.3878C17.7724 9.58567 17.2693 8.8854 16.5902 8.38861C15.9111 7.89182 15.0914 7.62434 14.25 7.625H13.2525C13.0144 6.69707 12.5689 5.83524 11.9495 5.1044C11.3301 4.37356 10.553 3.79275 9.67668 3.4057C8.80036 3.01865 7.84765 2.83544 6.89027 2.86987C5.93289 2.9043 4.9958 3.15546 4.14954 3.60446C3.30328 4.05346 2.56991 4.68859 2.00463 5.46203C1.43935 6.23547 1.05689 7.12708 0.886059 8.06972C0.715225 9.01236 0.760461 9.98147 1.01836 10.9041C1.27626 11.8267 1.74011 12.6788 2.37498 13.3963" stroke="white" stroke-width="2" stroke-linecap="round" stroke-linejoin="round"/>
</g>
<defs>
<clipPath id="clip0_286_106">
<rect width="19" height="19" fill="white" transform="translate(0 0.5)"/>
</clipPath>
</defs>
</svg>
