<svg width="22" height="22" viewBox="0 0 22 22" fill="none" xmlns="http://www.w3.org/2000/svg">
<g id="github" clip-path="url(#clip0_310_149)">
<path id="Vector" d="M14.6002 19.9125V16.4725C14.634 16.0486 14.576 15.6225 14.4302 15.2225C14.2843 14.8225 14.0539 14.4577 13.7542 14.1525C16.5802 13.8414 19.5502 12.7836 19.5502 7.93025C19.55 6.6892 19.0667 5.49576 18.2002 4.59691C18.6105 3.51114 18.5815 2.311 18.1192 1.2458C18.1192 1.2458 17.0572 0.93469 14.6002 2.56136C12.5375 2.0092 10.363 2.0092 8.30024 2.56136C5.84324 0.93469 4.78124 1.2458 4.78124 1.2458C4.31898 2.311 4.28997 3.51114 4.70024 4.59691C3.82736 5.50242 3.34351 6.70666 3.35024 7.95691C3.35024 12.7747 6.32024 13.8325 9.14624 14.1791C8.85014 14.4813 8.62178 14.8417 8.47602 15.2368C8.33026 15.632 8.27037 16.053 8.30024 16.4725V19.9125M8.30024 17.2458C3.80024 18.5791 3.80024 15.0236 2.00024 14.5791L8.30024 17.2458Z" stroke="white" stroke-width="1.24444" stroke-linecap="round" stroke-linejoin="round"/>
</g>
<defs>
<clipPath id="clip0_310_149">
<rect width="21.6" height="21.3333" fill="white" transform="translate(0.199951 0.333313)"/>
</clipPath>
</defs>
</svg>
